<?xml version="1.0" encoding="utf-8"?>
<!-- Generator: Adobe Illustrator 19.1.0, SVG Export Plug-In . SVG Version: 6.00 Build 0)  -->
<svg version="1.1" id="Layer_1" xmlns="http://www.w3.org/2000/svg" xmlns:xlink="http://www.w3.org/1999/xlink" x="0px" y="0px"
	 viewBox="-4.2 -283.1 370.9 128.9" style="enable-background:new -4.2 -283.1 370.9 128.9;" xml:space="preserve">
<style type="text/css">
	.st0{fill:#2FABF7;}
	.st1{fill:#228FE0;}
	.st2{fill:#0571C1;}
</style>
<g>
	<polygon class="st0" points="27.6,-251.3 40.5,-251.3 34,-267.8 	"/>
	<path id="SVGCleanerId_0" class="st1" d="M188.3-265.4c-1.2-0.6-2.9-0.6-4.7-0.6h-11.8v9.4h11.8c1.8,0,3.5,0,4.7-0.6
		c1.2-0.6,1.8-2.4,1.8-4.1C190.6-263.6,189.4-264.8,188.3-265.4z"/>
	<path class="st2" d="M314.2-283.1v7.1l-3.5-7.1H283v7.1l-3.5-7.1h-37.7c-6.5,0-11.8,1.2-16.5,3.5v-3.5h-26.5v3.5
		c-2.9-2.4-6.5-3.5-11.2-3.5H92.9l-6.5,14.7l-6.5-14.7h-30v7.1l-3.5-7.1H21.1L9.3-255.4l-13.5,30.6H9.3h16.5l3.5-9.4h8.2l3.5,9.4
		h34.1v-7.1l2.9,7.1h17.1l2.9-7.1v7.1H180v-15.3h1.2c1.2,0,1.2,0,1.2,1.8v13h42.4v-3.5c3.5,1.8,8.8,3.5,15.9,3.5h17.7l3.5-9.4h8.2
		l3.5,9.4h34.1v-8.8l5.3,8.8h27.7v-57.7H314.2L314.2-283.1z M115.3-233.6h-10V-266l-14.1,32.4h-8.8L68.2-266v32.4h-20l-4.1-8.8H24
		l-3.5,9.4H9.3L27-274.8h14.7l16.5,39.4v-39.4h15.9l13,28.3l11.8-28.3h16.5V-233.6z M155.3-266h-23v7.7h22.4v8.2h-22.4v8.2h23v8.8
		h-33v-41.8h33V-266z M199.4-248.9c1.2,2.4,1.8,4.1,1.8,7.7v8.2h-10v-5.3c0-2.4,0-5.9-1.8-8.2c-1.8-1.8-3.5-1.8-7.1-1.8h-10.6v15.3
		h-10v-41.8h22.4c5.3,0,8.8,0,11.8,1.8c2.9,1.8,4.7,4.7,4.7,9.4c0,6.5-4.1,10-7.1,11.2C196.5-251.9,198.3-250.1,199.4-248.9z
		 M217.1-233.6h-10v-41.8h10V-233.6z M333.1-233.6h-14.1l-18.8-31.2v31.2h-20l-3.5-8.8H256l-3.5,9.4h-11.2c-4.7,0-10.6-1.2-14.1-4.7
		c-3.5-3.5-5.3-8.2-5.3-15.9c0-5.9,1.2-11.8,5.3-16.5c2.9-3.5,8.2-4.7,14.7-4.7h9.4v8.8h-9.4c-3.5,0-5.3,0.6-7.7,2.4
		c-1.8,1.8-2.9,5.3-2.9,9.4c0,4.7,0.6,7.7,2.9,10c1.8,1.8,4.1,2.4,7.1,2.4h4.1l13.5-32.4h14.7l16.5,39.4v-39.4h14.7l17.1,28.8v-28.8
		h10v40.6H333.1L333.1-233.6z"/>
	<g>
		<polygon class="st1" points="259.5,-251.3 273,-251.3 266.6,-267.8 		"/>
		<polygon class="st1" points="159.4,-166.5 159.4,-200.1 144.1,-183.6 		"/>
	</g>
	<polygon class="st0" points="96.4,-195.9 96.4,-188.3 118.2,-188.3 118.2,-180 96.4,-180 96.4,-171.2 120.6,-171.2 131.8,-183.6 
		121.2,-195.9 	"/>
	<path id="SVGCleanerId_1" class="st1" d="M181.8-195.9h-12.4v10.6h13c3.5,0,5.9-1.8,5.9-5.3C187.7-194.2,185.3-195.9,181.8-195.9z"
		/>
	<path class="st2" d="M363.7-185.9v-26.5h-7.1H339c-5.3,0-9.4,1.2-12.4,3.5v-3.5h-27.1c-4.1,0-9.4,1.2-11.8,3.5v-3.5h-47.7v3.5
		c-3.5-2.9-10-3.5-13-3.5h-31.8v3.5c-2.9-2.9-10-3.5-13.5-3.5h-35.3l-8.2,8.8l-7.7-8.8h-53v57.7h51.8l8.2-8.8l7.7,8.8h31.8v-13.5
		h4.1c4.1,0,9.4,0,13.5-1.8v15.9h26.5v-15.3h1.2c1.8,0,1.8,0,1.8,1.8v13.5h80.1c5.3,0,10.6-1.2,13.5-3.5v3.5h25.3
		c5.3,0,10.6-0.6,14.1-2.9l0,0c5.9-3.5,9.4-10,9.4-17.7C366.6-178.9,365.5-183,363.7-185.9z M181.2-176.5h-11.8v14.1h-18.8
		l-11.8-13.5l-12.4,13.5H87.6v-41.8H127l11.8,13.5l12.4-13.5h31.2c7.7,0,16.5,2.4,16.5,13.5C198.3-178.9,190-176.5,181.2-176.5z
		 M240.1-178.9c1.2,1.8,1.8,4.1,1.8,7.7v8.2h-10v-5.3c0-2.4,0-6.5-1.8-8.2c-1.2-1.8-3.5-1.8-7.1-1.8h-10.6v15.3h-10v-41.8h22.4
		c4.7,0,8.8,0,11.8,1.8c2.9,1.8,5.3,4.7,5.3,9.4c0,6.5-4.1,10-7.1,11.2C237.7-181.2,239.5-180,240.1-178.9z M280.7-195.9h-23v7.7
		h22.4v8.2h-22.4v8.2h23v8.8h-33v-41.8h33V-195.9z M305.4-163h-18.8v-8.8h18.8c1.8,0,2.9,0,4.1-1.2c0.6-0.6,1.2-1.8,1.2-2.9
		c0-1.2-0.6-2.4-1.2-2.9c-0.6-0.6-1.8-1.2-3.5-1.2c-9.4-0.6-20.6,0-20.6-13c0-5.9,3.5-12.4,14.1-12.4h19.4v10h-18.2
		c-1.8,0-2.9,0-4.1,0.6c-1.2,0.6-1.2,1.8-1.2,2.9c0,1.8,1.2,2.4,2.4,2.9c1.2,0.6,2.4,0.6,3.5,0.6h5.3c5.3,0,8.8,1.2,11.2,3.5
		c1.8,1.8,2.9,4.7,2.9,8.8C320.7-167.1,315.4-163,305.4-163z M356-167.1c-2.4,2.4-6.5,4.1-12.4,4.1h-18.8v-8.8h18.8
		c1.8,0,2.9,0,4.1-1.2c0.6-0.6,1.2-1.8,1.2-2.9c0-1.2-0.6-2.4-1.2-2.9c-0.6-0.6-1.8-1.2-3.5-1.2c-9.4-0.6-20.6,0-20.6-13
		c0-5.9,3.5-12.4,14.1-12.4h19.4v10h-17.7c-1.8,0-2.9,0-4.1,0.6c-1.2,0.6-1.2,1.8-1.2,2.9c0,1.8,0.6,2.4,2.4,2.9
		c1.2,0.6,2.4,0.6,3.5,0.6h5.3c5.3,0,8.8,1.2,11.2,3.5c0.6,0,0.6,0.6,0.6,0.6c1.8,2.4,2.4,5.3,2.4,8.2
		C359.6-172.4,358.4-169.4,356-167.1z"/>
	<path id="SVGCleanerId_2" class="st1" d="M229.5-194.8c-1.2-0.6-2.9-0.6-4.7-0.6H213v9.4h11.8c1.8,0,3.5,0,4.7-0.6
		c1.2-0.6,1.8-2.4,1.8-4.1C231.8-193,230.6-194.2,229.5-194.8z"/>
	<g>
		<path id="SVGCleanerId_0_1_" class="st1" d="M188.3-265.4c-1.2-0.6-2.9-0.6-4.7-0.6h-11.8v9.4h11.8c1.8,0,3.5,0,4.7-0.6
			c1.2-0.6,1.8-2.4,1.8-4.1C190.6-263.6,189.4-264.8,188.3-265.4z"/>
	</g>
	<g>
		<polygon class="st1" points="259.5,-251.3 273,-251.3 266.6,-267.8 		"/>
		<polygon class="st1" points="159.4,-166.5 159.4,-200.1 144.1,-183.6 		"/>
	</g>
	<g>
		<path id="SVGCleanerId_1_1_" class="st1" d="M181.8-195.9h-12.4v10.6h13c3.5,0,5.9-1.8,5.9-5.3
			C187.7-194.2,185.3-195.9,181.8-195.9z"/>
	</g>
	<g>
		<path id="SVGCleanerId_2_1_" class="st1" d="M229.5-194.8c-1.2-0.6-2.9-0.6-4.7-0.6H213v9.4h11.8c1.8,0,3.5,0,4.7-0.6
			c1.2-0.6,1.8-2.4,1.8-4.1C231.8-193,230.6-194.2,229.5-194.8z"/>
	</g>
	<g>
		<polygon class="st0" points="177.7,-164.1 169.4,-173 169.4,-163 150,-163 138.2,-176.5 125.3,-163 86.4,-163 86.4,-204.2 
			125.9,-204.2 138.2,-190.6 144.1,-197.7 129.4,-212.4 77.6,-212.4 77.6,-154.7 129.4,-154.7 138.2,-163.6 145.9,-154.7 
			177.7,-154.7 		"/>
		<polygon class="st0" points="116.4,-225.4 108.8,-233.6 105.3,-233.6 105.3,-237.1 96.4,-246 90.5,-233.6 82.3,-233.6 68.2,-266 
			68.2,-233.6 48.2,-233.6 44,-242.4 24,-242.4 19.9,-233.6 9.3,-233.6 27,-274.8 41.7,-274.8 58.2,-235.4 58.2,-274.8 67,-274.8 
			58.8,-283.1 49.9,-283.1 49.9,-276 47,-283.1 21.1,-283.1 9.3,-255.4 -4.2,-225.4 9.3,-225.4 26.4,-225.4 29.9,-234.2 
			38.2,-234.2 42.3,-225.4 75.2,-225.4 75.2,-232.4 78.2,-225.4 95.3,-225.4 98.2,-232.4 98.2,-225.4 		"/>
		<polygon class="st0" points="89.4,-252.4 79.9,-261.9 87,-246.6 		"/>
	</g>
	<g>
		<path class="st1" d="M357.2-157.7c5.3-3.5,8.8-9.4,9.4-15.9l-8.2-8.2c0.6,1.8,1.2,3.5,1.2,5.9c0,3.5-1.2,6.5-3.5,8.8
			c-2.4,2.4-6.5,4.1-12.4,4.1h-18.8v-8.8h18.8c1.8,0,2.9,0,4.1-1.2c0.6-0.6,1.2-1.8,1.2-2.9c0-1.2-0.6-2.4-1.2-2.9
			c-0.6-0.6-1.8-1.2-3.5-1.2c-9.4-0.6-20.6,0-20.6-13c0-5.9,3.5-11.2,12.4-12.4l-6.5-6.5c-1.2,0.6-1.8,1.2-2.4,1.2v-3.5h-27.1
			c-4.1,0-9.4,1.2-11.8,3.5v-3.5h-48.3v3.5c-3.5-2.9-10-3.5-13-3.5h-31.8v3.5c-2.9-2.9-10-3.5-13.5-3.5h-35.3l-8.2,8.8l-7.7-8.8
			h-6.5l17.7,17.7l8.8-9.4h31.2c7.7,0,16.5,2.4,16.5,13.5c0,11.8-8.2,14.1-17.1,14.1h-11.8v8.8l8.8,8.8v-8.8h2.9
			c4.1,0,9.4,0,13.5-1.8v15.9h26.5v-15.3h1.2c1.8,0,1.8,0,1.8,1.8v13.5h80.1c5.3,0,10.6-1.2,13.5-3.5v3.5h25.3
			C347.8-154.7,353.1-155.3,357.2-157.7L357.2-157.7z M240.1-178.9c1.2,1.8,1.8,4.1,1.8,7.7v8.2h-10v-5.3c0-2.4,0-6.5-1.8-8.2
			c-1.2-1.8-3.5-1.8-7.1-1.8h-10.6v15.3h-10v-41.8h22.4c4.7,0,8.8,0,11.8,1.8c2.9,1.8,5.3,4.7,5.3,9.4c0,6.5-4.1,10-7.1,11.2
			C237.7-181.2,239.5-180,240.1-178.9z M280.7-195.9h-23v7.7h22.4v8.2h-22.4v8.2h23v8.8h-33v-41.8h33V-195.9z M305.4-163h-18.8v-8.8
			h18.8c1.8,0,2.9,0,4.1-1.2c0.6-0.6,1.2-1.8,1.2-2.9c0-1.2-0.6-2.4-1.2-2.9c-0.6-0.6-1.8-1.2-3.5-1.2c-9.4-0.6-20.6,0-20.6-13
			c0-5.9,3.5-12.4,14.1-12.4h19.4v10h-18.2c-1.8,0-2.9,0-4.1,0.6c-1.2,0.6-1.2,1.8-1.2,2.9c0,1.8,1.2,2.4,2.4,2.9
			c1.2,0.6,2.4,0.6,3.5,0.6h5.3c5.3,0,8.8,1.2,11.2,3.5c1.8,1.8,2.9,4.7,2.9,8.8C320.7-167.1,315.4-163,305.4-163z"/>
		<path class="st1" d="M333.7-191.8c0,1.8,0.6,2.4,2.4,2.9c1.2,0.6,2.4,0.6,3.5,0.6h5.3c3.5,0,5.9,0.6,8.2,1.8l-8.8-8.8H339
			c-1.8,0-2.9,0-4.1,0.6C334.3-194.2,333.7-193,333.7-191.8z"/>
		<polygon class="st1" points="313.1,-227.1 314.2,-225.4 314.8,-225.4 		"/>
		<polygon class="st1" points="280.7,-259.5 290.7,-235.4 290.7,-249.5 		"/>
		<path class="st1" d="M180-240.1h1.2c1.2,0,1.2,0,1.2,1.8v13h42.4v-3.5c3.5,1.8,8.8,3.5,15.9,3.5h17.7l3.5-9.4h8.2l3.5,9.4h34.1
			v-5.9l-8.2-8.2v6.5h-20l-2.9-9.4H256l-3.5,9.4h-11.2c-4.7,0-10.6-1.2-14.1-4.7c-3.5-3.5-5.3-8.2-5.3-15.9c0-5.9,1.2-11.8,5.3-16.5
			c2.9-3.5,8.2-4.7,14.7-4.7h9.4v8.8h-9.4c-3.5,0-5.3,0.6-7.7,2.4c-1.8,1.8-2.9,5.3-2.9,9.4c0,4.7,0.6,7.7,2.9,10
			c1.8,1.8,4.1,2.4,7.1,2.4h4.1l13.5-32.4h5.9l-8.2-8.2h-15.3c-6.5,0-11.8,1.2-16.5,3.5v-3.5h-25.9v3.5c-2.9-2.4-6.5-3.5-11.2-3.5
			H92.9l-6.5,14.7l-6.5-14.7H54l8.2,8.2h11.8l10,21.8l3.5,3.5l10.6-25.9h16.5v41.8h-10v-32.4l-10,23.5l17.1,17.1h67.7L180-240.1z
			 M207.1-274.8h10v41.8h-10V-274.8z M155.3-266h-23v7.7h22.4v8.2h-22.4v8.2h23v8.8h-33v-41.8h33V-266z M171.8-233.6h-10v-41.8h22.4
			c5.3,0,8.8,0,11.8,1.8c2.9,1.8,4.7,4.7,4.7,9.4c0,6.5-4.1,10-7.1,11.2c2.4,0.6,4.1,2.4,4.7,3.5c1.2,2.4,1.8,4.1,1.8,7.7v8.2h-10
			v-5.3c0-2.4,0-5.9-1.8-8.2c-0.6-1.2-2.4-1.2-5.9-1.2h-10.6V-233.6L171.8-233.6z"/>
	</g>
</g>
</svg>
