<?xml version="1.0" encoding="utf-8"?>
<!-- Generator: Adobe Illustrator 19.1.0, SVG Export Plug-In . SVG Version: 6.00 Build 0)  -->
<svg version="1.1" id="Layer_1" xmlns="http://www.w3.org/2000/svg" xmlns:xlink="http://www.w3.org/1999/xlink" x="0px" y="0px"
	 viewBox="0 0 150.8 27.9" style="enable-background:new 0 0 150.8 27.9;" xml:space="preserve">
<g>
	<path d="M18.9,27.4h-7.8v-0.9c0.2-0.1,0.5-0.3,0.9-0.5c0.4-0.2,0.8-0.3,1.3-0.4v-8.4c0-1,0-1.8-0.1-2.6c-0.1-0.8-0.2-1.4-0.5-2
		c-0.2-0.5-0.6-0.9-1-1.2c-0.4-0.3-1-0.4-1.7-0.4c-0.5,0-1,0.1-1.5,0.3c-0.5,0.2-0.9,0.5-1.2,0.9c-0.4,0.4-0.7,0.8-0.9,1.2
		c-0.3,0.5-0.5,0.9-0.6,1.5v10.7c0.4,0.1,0.8,0.2,1.1,0.4c0.4,0.1,0.7,0.3,1,0.5v0.9H0v-0.9c0.3-0.2,0.7-0.3,1.1-0.5
		c0.4-0.1,0.8-0.3,1.3-0.4V11.3L0,11v-0.9c0.8-0.3,1.6-0.6,2.4-0.8C3.2,9,4,8.9,4.8,8.8h0.9v4.1h0c0.4-1.1,1.1-2.1,2-2.9
		c0.9-0.8,2.1-1.2,3.5-1.2c0.6,0,1.1,0.1,1.7,0.2c0.5,0.1,1,0.3,1.5,0.7c0.5,0.3,0.9,0.8,1.2,1.4c0.3,0.6,0.5,1.3,0.7,2.3
		c0.4-1.3,1.1-2.4,2.1-3.2c1-0.8,2.2-1.2,3.6-1.2c0.9,0,1.7,0.1,2.4,0.3c0.7,0.2,1.2,0.6,1.7,1.2c0.4,0.6,0.8,1.4,1,2.4
		c0.2,1,0.3,2.3,0.3,3.8v9.2c0.8,0.1,1.6,0.4,2.4,0.9v0.9h-7.8v-0.9c0.7-0.4,1.4-0.7,2.2-0.9v-9.1c0-0.9,0-1.7-0.1-2.3
		c-0.1-0.7-0.2-1.3-0.5-1.7c-0.2-0.5-0.6-0.8-1-1.1c-0.4-0.3-1-0.4-1.8-0.4c-1.2,0-2.1,0.4-2.7,1.2c-0.6,0.8-1.1,1.8-1.4,3.1v10.4
		c0.9,0.2,1.6,0.5,2.4,0.9V27.4z"/>
	<path d="M40,27.4h-8.1v-0.9c0.4-0.2,0.7-0.4,1.1-0.5c0.4-0.1,0.8-0.3,1.3-0.4V11.3L31.9,11v-0.9c0.7-0.3,1.5-0.5,2.3-0.8
		c0.8-0.2,1.7-0.4,2.5-0.5h0.9v16.9c0.5,0.1,0.9,0.2,1.3,0.4s0.8,0.3,1.1,0.5V27.4z M33.6,3c0-0.7,0.2-1.2,0.6-1.6
		c0.4-0.4,1-0.6,1.7-0.6c0.7,0,1.3,0.2,1.7,0.6C38,1.8,38.2,2.3,38.2,3S38,4.2,37.6,4.5c-0.4,0.4-1,0.6-1.7,0.6
		c-0.7,0-1.3-0.2-1.7-0.6C33.8,4.2,33.6,3.6,33.6,3z"/>
	<path d="M62.4,27.4h-7.8v-0.9c0.7-0.3,1.4-0.6,2.2-0.9V17c0-1.8-0.3-3.3-0.8-4.4C55.4,11.6,54.4,11,53,11c-0.6,0-1.2,0.1-1.7,0.3
		c-0.5,0.2-1,0.5-1.4,0.9c-0.4,0.4-0.7,0.8-1,1.3s-0.5,1-0.7,1.5v10.7c0.8,0.1,1.5,0.4,2.2,0.9v0.9h-7.9v-0.9
		c0.6-0.3,1.4-0.6,2.4-0.9V11.3L42.5,11v-0.9c0.6-0.3,1.4-0.5,2.2-0.7c0.8-0.2,1.7-0.4,2.6-0.6h0.9v4.1h0c0.5-1.1,1.2-2.1,2.2-2.9
		c1-0.8,2.1-1.2,3.5-1.2c1,0,1.8,0.1,2.6,0.3c0.8,0.2,1.4,0.6,1.9,1.2c0.5,0.6,0.9,1.4,1.2,2.4c0.3,1,0.4,2.2,0.4,3.7v9.2
		c1,0.2,1.8,0.5,2.4,0.9V27.4z"/>
	<path d="M72.6,27.4h-8.1v-0.9c0.4-0.2,0.7-0.4,1.1-0.5c0.4-0.1,0.8-0.3,1.3-0.4V11.3L64.5,11v-0.9c0.7-0.3,1.5-0.5,2.3-0.8
		c0.8-0.2,1.7-0.4,2.5-0.5h0.9v16.9c0.5,0.1,0.9,0.2,1.3,0.4s0.8,0.3,1.1,0.5V27.4z M66.2,3c0-0.7,0.2-1.2,0.6-1.6
		c0.4-0.4,1-0.6,1.7-0.6c0.7,0,1.3,0.2,1.7,0.6c0.4,0.4,0.6,0.9,0.6,1.6s-0.2,1.2-0.6,1.6c-0.4,0.4-1,0.6-1.7,0.6
		c-0.7,0-1.3-0.2-1.7-0.6C66.4,4.2,66.2,3.6,66.2,3z"/>
	<path d="M89.6,24.9c-0.4,0.9-1.1,1.6-2.1,2.1c-1,0.6-2.1,0.9-3.4,0.9c-1.4,0-2.7-0.2-3.7-0.7c-1.1-0.4-1.9-1.1-2.6-1.9
		c-0.7-0.8-1.2-1.8-1.6-3c-0.4-1.2-0.5-2.5-0.5-3.9c0-3.1,0.8-5.5,2.3-7.1c1.5-1.6,3.6-2.5,6.2-2.5c1.2,0,2.3,0.1,3.2,0.3
		c0.9,0.2,1.7,0.5,2.4,0.8c-0.1,0.8-0.2,1.7-0.4,2.7c-0.2,1-0.4,1.8-0.7,2.5h-1l-1.5-4.3c-0.2-0.1-0.4-0.2-0.6-0.3
		c-0.2-0.1-0.6-0.1-1.1-0.1c-1.7,0-2.9,0.6-3.8,1.8c-0.9,1.2-1.4,3.2-1.4,6.1c0,0.9,0.1,1.8,0.4,2.7s0.6,1.7,1.2,2.4
		c0.5,0.7,1.2,1.2,2,1.7c0.8,0.4,1.7,0.6,2.8,0.6c0.9,0,1.6-0.1,2.2-0.4c0.6-0.2,1.2-0.5,1.6-0.9L89.6,24.9z"/>
	<path d="M111.8,27.4h-7.9v-0.9c0.6-0.3,1.3-0.6,2.2-0.9v-8.5c0-1.9-0.3-3.4-0.8-4.5c-0.5-1.1-1.5-1.6-2.9-1.6
		c-0.6,0-1.2,0.1-1.7,0.3c-0.5,0.2-1,0.5-1.4,0.9c-0.4,0.4-0.8,0.8-1.1,1.3s-0.5,1-0.7,1.5v10.7c0.4,0.1,0.8,0.2,1.1,0.3
		c0.4,0.1,0.7,0.3,1,0.5v0.9h-7.8v-0.9c0.8-0.4,1.6-0.7,2.4-0.9V2.6l-2.8-0.3V1.3C92.2,1,93,0.8,94,0.5c0.9-0.2,1.8-0.4,2.7-0.5h0.9
		v12.9h0c0.5-1.1,1.2-2.1,2.2-2.9s2.1-1.2,3.5-1.2c1,0,1.8,0.1,2.6,0.3c0.8,0.2,1.4,0.6,1.9,1.2c0.5,0.6,0.9,1.4,1.2,2.4
		c0.3,1,0.4,2.2,0.4,3.7v9.2c0.4,0.1,0.8,0.2,1.2,0.3c0.4,0.1,0.8,0.3,1.2,0.5V27.4z"/>
	<path d="M128.7,24.9c-0.2,0.4-0.5,0.8-0.9,1.2c-0.4,0.4-0.9,0.7-1.4,0.9s-1.1,0.5-1.8,0.6c-0.6,0.2-1.3,0.2-1.9,0.2
		c-1.4,0-2.7-0.2-3.8-0.7c-1.1-0.4-2-1.1-2.7-1.9s-1.3-1.8-1.7-3c-0.4-1.2-0.6-2.5-0.6-3.9c0-3.1,0.7-5.5,2.2-7.1
		c1.4-1.6,3.5-2.4,6.1-2.4c0.9,0,1.7,0.1,2.5,0.3c0.8,0.2,1.6,0.6,2.2,1.1c0.6,0.5,1.2,1.2,1.6,2.1c0.4,0.9,0.6,2,0.6,3.3
		c0,0.4,0,0.8-0.1,1.3c0,0.4-0.1,0.9-0.2,1.4h-11.4c0,1,0.1,2,0.4,2.9c0.3,0.9,0.6,1.7,1.1,2.3c0.5,0.7,1.2,1.2,1.9,1.6
		c0.8,0.4,1.7,0.6,2.7,0.6c0.9,0,1.7-0.1,2.6-0.4c0.9-0.2,1.5-0.6,2-0.9L128.7,24.9z M122,10.4c-1.4,0-2.4,0.5-3.2,1.4
		c-0.7,0.9-1.2,2.6-1.3,4.9h8c0-0.2,0-0.4,0.1-0.6c0-0.2,0-0.4,0-0.6c0-1.6-0.3-2.8-0.9-3.7C124.2,10.8,123.2,10.4,122,10.4z"/>
	<path d="M141.9,0c0.2,0,0.5,0,0.8,0c0.3,0,0.6,0.1,0.9,0.1c0.3,0,0.6,0.1,0.9,0.1c0.3,0.1,0.5,0.1,0.8,0.2
		c-0.1,0.8-0.2,1.6-0.3,2.2c-0.1,0.7-0.3,1.3-0.5,1.9h-0.9L142,1.5c-0.7,0-1.3,0.1-1.8,0.2c-0.5,0.1-0.9,0.4-1.2,0.8s-0.6,1-0.7,1.8
		C138,5.1,138,6.1,138,7.4v1.8h4.2v1.9H138v14.6c1.3,0.1,2.4,0.4,3.5,0.9v0.9h-9.2v-0.9c0.8-0.4,1.6-0.7,2.4-0.9V11.1h-2.8v-1
		c0.9-0.6,1.8-1,2.8-1.2V7.6c0-1.5,0.2-2.8,0.5-3.7c0.4-1,0.9-1.8,1.5-2.3c0.7-0.6,1.4-1,2.3-1.2C140,0.1,140.9,0,141.9,0z"/>
	<path d="M145.8,25.4c0-0.7,0.2-1.3,0.7-1.8c0.5-0.4,1.1-0.7,1.8-0.7c0.8,0,1.4,0.2,1.8,0.7s0.7,1,0.7,1.8c0,0.7-0.2,1.3-0.7,1.7
		c-0.5,0.4-1.1,0.7-1.8,0.7c-0.7,0-1.3-0.2-1.8-0.7C146.1,26.6,145.8,26.1,145.8,25.4z"/>
</g>
</svg>
