<?xml version="1.0" encoding="utf-8"?>
<!-- Generator: Adobe Illustrator 19.1.0, SVG Export Plug-In . SVG Version: 6.00 Build 0)  -->
<svg version="1.1" id="Layer_1" xmlns="http://www.w3.org/2000/svg" xmlns:xlink="http://www.w3.org/1999/xlink" x="0px" y="0px"
	 viewBox="247.4 10.6 211.2 126.7" style="enable-background:new 247.4 10.6 211.2 126.7;" xml:space="preserve">
<style type="text/css">
	.st0{fill:#FFB600;}
	.st1{fill:#F7981D;}
	.st2{fill:#FF8500;}
	.st3{fill:#FF5050;}
	.st4{fill:#E52836;}
	.st5{fill:#CB2026;}
	.st6{fill:#FFFFFF;}
	.st7{fill:#DCE5E5;}
</style>
<g>
	<path class="st0" d="M458.6,74c0,34.9-28.2,63.4-63.4,63.4c-34.9,0-63.4-28.5-63.4-63.4l0,0c0-34.9,28.2-63.4,63-63.4
		C430.4,10.6,458.6,39.1,458.6,74L458.6,74z"/>
	<path class="st1" d="M395.2,10.6c34.9,0,63.4,28.5,63.4,63.4l0,0c0,34.9-28.2,63.4-63.4,63.4c-34.9,0-63.4-28.5-63.4-63.4"/>
	<path class="st2" d="M395.2,10.6c34.9,0,63.4,28.5,63.4,63.4l0,0c0,34.9-28.2,63.4-63.4,63.4"/>
	<path class="st3" d="M310.1,10.6C275.6,11,247.4,39.1,247.4,74s28.2,63.4,63.4,63.4c16.4,0,31.2-6.4,42.6-16.4l0,0l0,0
		c2.3-2,4.4-4.4,6.4-6.7h-13.1c-1.7-2-3.4-4.4-4.7-6.4h22.5c1.3-2,2.7-4.4,3.7-6.7h-29.8c-1-2-2-4.4-2.7-6.7h34.9
		c2-6.4,3.4-13.1,3.4-20.1c0-4.7-0.7-9.1-1.3-13.4h-38.9c0.3-2.3,1-4.4,1.7-6.7h34.9c-0.7-2.3-1.7-4.7-2.7-6.7h-29.5
		c1-2.3,2.3-4.4,3.7-6.7h22.5c-1.3-2.3-3-4.7-5-6.7h-12.4c2-2.3,4-4.4,6.4-6.4c-11.1-10.4-26.1-16.4-42.6-16.4
		C310.4,10.6,310.4,10.6,310.1,10.6z"/>
	<path class="st4" d="M247.4,74c0,34.9,28.2,63.4,63.4,63.4c16.4,0,31.2-6.4,42.6-16.4l0,0l0,0c2.3-2,4.4-4.4,6.4-6.7h-13.1
		c-1.7-2-3.4-4.4-4.7-6.4h22.5c1.3-2,2.7-4.4,3.7-6.7h-29.8c-1-2-2-4.4-2.7-6.7h34.9c2-6.4,3.4-13.1,3.4-20.1
		c0-4.7-0.7-9.1-1.3-13.4h-38.9c0.3-2.3,1-4.4,1.7-6.7h34.9c-0.7-2.3-1.7-4.7-2.7-6.7h-29.5c1-2.3,2.3-4.4,3.7-6.7h22.5
		c-1.3-2.3-3-4.7-5-6.7h-12.4c2-2.3,4-4.4,6.4-6.4c-11.1-10.4-26.1-16.4-42.6-16.4h-0.3"/>
	<path class="st5" d="M310.8,137.4c16.4,0,31.2-6.4,42.6-16.4l0,0l0,0c2.3-2,4.4-4.4,6.4-6.7h-13.1c-1.7-2-3.4-4.4-4.7-6.4h22.5
		c1.3-2,2.7-4.4,3.7-6.7h-29.8c-1-2-2-4.4-2.7-6.7h34.9c2-6.4,3.4-13.1,3.4-20.1c0-4.7-0.7-9.1-1.3-13.4h-38.9
		c0.3-2.3,1-4.4,1.7-6.7h34.9c-0.7-2.3-1.7-4.7-2.7-6.7h-29.5c1-2.3,2.3-4.4,3.7-6.7h22.5c-1.3-2.3-3-4.7-5-6.7h-12.4
		c2-2.3,4-4.4,6.4-6.4c-11.1-10.4-26.1-16.4-42.6-16.4h-0.3"/>
	<g>
		<path class="st6" d="M333.2,90.1l1-5.7c-0.3,0-1,0.3-1.7,0.3c-2.3,0-2.7-1.3-2.3-2l2-11.7h3.7l1-6.4h-3.4l0.7-4h-6.7
			c0,0-4,22.1-4,24.8c0,4,2.3,5.7,5.4,5.7C330.9,91.1,332.6,90.4,333.2,90.1z"/>
		<path class="st6" d="M335.6,79.4c0,9.4,6.4,11.7,11.7,11.7c5,0,7-1,7-1l1.3-6.4c0,0-3.7,1.7-7,1.7c-7.4,0-6-5.4-6-5.4h13.7
			c0,0,1-4.4,1-6c0-4.4-2.3-9.7-9.7-9.7C340.6,63.6,335.6,71,335.6,79.4z M347.3,69.6c3.7,0,3,4.4,3,4.7h-7.4
			C342.9,74,343.6,69.6,347.3,69.6z"/>
		<path class="st6" d="M389.9,90.1l1.3-7.4c0,0-3.4,1.7-5.7,1.7c-4.7,0-6.7-3.7-6.7-7.7c0-8,4-12.4,8.7-12.4c3.4,0,6,2,6,2l1-7
			c0,0-4-1.7-7.7-1.7c-7.7,0-15.4,6.7-15.4,19.4c0,8.4,4,14.1,12.1,14.1C386.2,91.1,389.9,90.1,389.9,90.1z"/>
		<path class="st6" d="M296.3,63.6c-4.7,0-8,1.3-8,1.3l-1,5.7c0,0,3-1.3,7.4-1.3c2.3,0,4.4,0.3,4.4,2.3c0,1.3-0.3,1.7-0.3,1.7
			s-2,0-3,0c-5.7,0-12.1,2.3-12.1,10.1c0,6,4,7.4,6.4,7.4c4.7,0,6.7-3,7-3l-0.3,2.7h6l2.7-18.4C305.4,63.9,298.7,63.6,296.3,63.6z
			 M297.7,78.7c0,1-0.7,6.4-4.7,6.4c-2,0-2.7-1.7-2.7-2.7c0-1.7,1-4,6-4C297.4,78.7,297.7,78.7,297.7,78.7z"/>
		<path class="st6" d="M311.8,90.8c1.7,0,10.1,0.3,10.1-8.7c0-8.4-8-6.7-8-10.1c0-1.7,1.3-2.3,3.7-2.3c1,0,4.7,0.3,4.7,0.3l1-6
			c0,0-2.3-0.7-6.4-0.7c-5,0-10.1,2-10.1,8.7c0,7.7,8.4,7,8.4,10.1c0,2-2.3,2.3-4,2.3c-3,0-6-1-6-1l-1,6
			C304.4,90.1,306.1,90.8,311.8,90.8z"/>
		<path class="st6" d="M445.5,58.2l-1.3,9.1c0,0-2.7-3.4-6.4-3.4c-6,0-11.4,7.4-11.4,16.1c0,5.4,2.7,11.1,8.4,11.1
			c4,0,6.4-2.7,6.4-2.7l-0.3,2.3h6.7l5-32.2L445.5,58.2z M442.5,76c0,3.7-1.7,8.4-5.4,8.4c-2.3,0-3.7-2-3.7-5.4
			c0-5.4,2.3-8.7,5.4-8.7C441.2,70.3,442.5,72,442.5,76z"/>
		<path class="st6" d="M259.8,90.4l4-24.1l0.7,24.1h4.7l8.7-24.1l-3.7,24.1h7l5.4-32.2h-11.1L268.9,78l-0.3-19.8h-9.7l-5.4,32.2
			H259.8z"/>
		<path class="st6" d="M363.7,90.4c2-11.1,2.3-20.1,7-18.4c0.7-4.4,1.7-6,2.3-7.7c0,0-0.3,0-1.3,0c-3,0-5.4,4-5.4,4l0.7-3.7h-6.4
			l-4.4,26.1h7.4V90.4z"/>
		<path class="st6" d="M405.3,63.6c-4.7,0-8,1.3-8,1.3l-1,5.7c0,0,3-1.3,7.4-1.3c2.3,0,4.4,0.3,4.4,2.3c0,1.3-0.3,1.7-0.3,1.7
			s-2,0-3,0c-5.7,0-12.1,2.3-12.1,10.1c0,6,4,7.4,6.4,7.4c4.7,0,6.7-3,7-3l-0.3,2.7h6l2.7-18.4C414.7,63.9,407.6,63.6,405.3,63.6z
			 M407,78.7c0,1-0.7,6.4-4.7,6.4c-2,0-2.7-1.7-2.7-2.7c0-1.7,1-4,6-4C406.6,78.7,406.6,78.7,407,78.7z"/>
		<path class="st6" d="M420,90.4c2-11.1,2.3-20.1,7-18.4c0.7-4.4,1.7-6,2.3-7.7c0,0-0.3,0-1.3,0c-3,0-5.4,4-5.4,4l0.7-3.7H417
			l-4.4,26.1h7.4V90.4z"/>
	</g>
	<g>
		<path class="st7" d="M322.8,85.4c0,4,2.3,5.7,5.4,5.7c2.3,0,4.4-0.7,5-1l1-5.7c-0.3,0-1,0.3-1.7,0.3c-2.3,0-2.7-1.3-2.3-2l2-11.7
			h3.7l1-6.4h-3.4l0.7-4"/>
		<path class="st7" d="M338.9,79.4c0,9.4,3,11.7,8.4,11.7c5,0,7-1,7-1l1.3-6.4c0,0-3.7,1.7-7,1.7c-7.4,0-6-5.4-6-5.4h13.7
			c0,0,1-4.4,1-6c0-4.4-2.3-9.7-9.7-9.7C340.6,63.6,338.9,71,338.9,79.4z M347.3,69.6c3.7,0,4.4,4.4,4.4,4.7h-8.7
			C342.9,74,343.6,69.6,347.3,69.6z"/>
		<path class="st7" d="M389.9,90.1l1.3-7.4c0,0-3.4,1.7-5.7,1.7c-4.7,0-6.7-3.7-6.7-7.7c0-8,4-12.4,8.7-12.4c3.4,0,6,2,6,2l1-7
			c0,0-4-1.7-7.7-1.7c-7.7,0-12.1,6.7-12.1,19.4c0,8.4,0.7,14.1,8.7,14.1C386.2,91.1,389.9,90.1,389.9,90.1z"/>
		<path class="st7" d="M287.3,71c0,0,3-1.3,7.4-1.3c2.3,0,4.4,0.3,4.4,2.3c0,1.3-0.3,1.7-0.3,1.7s-2,0-3,0
			c-5.7,0-12.1,2.3-12.1,10.1c0,6,4,7.4,6.4,7.4c4.7,0,6.7-3,7-3l-0.3,2.7h6l2.7-18.4c0-7.7-6.7-8-9.4-8 M301,78.7c0,1-4,6.4-8,6.4
			c-2,0-2.7-1.7-2.7-2.7c0-1.7,1-4,6-4C297.4,78.7,301,78.7,301,78.7z"/>
		<path class="st7" d="M304.4,90.1c0,0,2,0.7,7.7,0.7c1.7,0,10.1,0.3,10.1-8.7c0-8.4-8-6.7-8-10.1c0-1.7,1.3-2.3,3.7-2.3
			c1,0,4.7,0.3,4.7,0.3l1-6c0,0-2.3-0.7-6.4-0.7c-5,0-6.7,2-6.7,8.7c0,7.7,5,7,5,10.1c0,2-2.3,2.3-4,2.3"/>
		<path class="st7" d="M444.2,67.3c0,0-2.7-3.4-6.4-3.4c-6,0-8,7.4-8,16.1c0,5.4-0.7,11.1,5,11.1c4,0,6.4-2.7,6.4-2.7l-0.3,2.3h6.7
			l5-32.2 M443.8,76c0,3.7-3,8.4-6.7,8.4c-2.3,0-3.7-2-3.7-5.4c0-5.4,2.3-8.7,5.4-8.7C441.2,70.3,443.8,72,443.8,76z"/>
		<path class="st7" d="M259.8,90.4l4-24.1l0.7,24.1h4.7l8.7-24.1l-3.7,24.1h7l5.4-32.2h-8.4L268.9,78l-0.3-19.8h-3.7l-11.4,32.2
			H259.8z"/>
		<path class="st7" d="M356.7,90.4h7c2-11.1,2.3-20.1,7-18.4c0.7-4.4,1.7-6,2.3-7.7c0,0-0.3,0-1.3,0c-3,0-5.4,4-5.4,4l0.7-3.7"/>
		<path class="st7" d="M396.2,71c0,0,3-1.3,7.4-1.3c2.3,0,4.4,0.3,4.4,2.3c0,1.3-0.3,1.7-0.3,1.7s-2,0-3,0
			c-5.7,0-12.1,2.3-12.1,10.1c0,6,4,7.4,6.4,7.4c4.7,0,6.7-3,7-3l-0.3,2.7h6l2.7-18.4c0-7.7-6.7-8-9.4-8 M410,78.7c0,1-4,6.4-8,6.4
			c-2,0-2.7-1.7-2.7-2.7c0-1.7,1-4,6-4C406.6,78.7,410,78.7,410,78.7z"/>
		<path class="st7" d="M413,90.4h7c2-11.1,2.3-20.1,7-18.4c0.7-4.4,1.7-6,2.3-7.7c0,0-0.3,0-1.3,0c-3,0-5.4,4-5.4,4l0.7-3.7"/>
	</g>
</g>
</svg>
