<?xml version="1.0" encoding="utf-8"?>
<!-- Generator: Adobe Illustrator 19.1.0, SVG Export Plug-In . SVG Version: 6.00 Build 0)  -->
<svg version="1.1" id="Layer_1" xmlns="http://www.w3.org/2000/svg" xmlns:xlink="http://www.w3.org/1999/xlink" x="0px" y="0px"
	 viewBox="102 10.6 504 128.8" style="enable-background:new 102 10.6 504 128.8;" xml:space="preserve">
<style type="text/css">
	.st0{fill:#139AD6;}
	.st1{fill:#263B80;}
	.st2{fill:#232C65;}
</style>
<path class="st0" d="M491.6,44.2h-27.2c-1.6,0-3.2,1.6-4,3.2l-11.2,70.4c0,1.6,0.8,2.4,2.4,2.4H466c1.6,0,2.4-0.8,2.4-2.4l3.2-20
	c0-1.6,1.6-3.2,4-3.2h8.8c18.4,0,28.8-8.8,31.2-26.4c1.6-7.2,0-13.6-3.2-17.6C507.6,46.6,500.4,44.2,491.6,44.2 M494.8,70.6
	c-1.6,9.6-8.8,9.6-16,9.6H474l3.2-18.4c0-0.8,0.8-1.6,2.4-1.6h1.6c4.8,0,9.6,0,12,3.2C494.8,64.2,494.8,66.6,494.8,70.6"/>
<g>
	<path class="st1" d="M295.6,44.2h-27.2c-1.6,0-3.2,1.6-4,3.2l-11.2,70.4c0,1.6,0.8,2.4,2.4,2.4h12.8c1.6,0,3.2-1.6,4-3.2l3.2-19.2
		c0-1.6,1.6-3.2,4-3.2h8.8c18.4,0,28.8-8.8,31.2-26.4c1.6-7.2,0-13.6-3.2-17.6C311.6,46.6,305.2,44.2,295.6,44.2 M298.8,70.6
		c-1.6,9.6-8.8,9.6-16,9.6h-4l3.2-18.4c0-0.8,0.8-1.6,2.4-1.6h1.6c4.8,0,9.6,0,12,3.2C298.8,64.2,299.6,66.6,298.8,70.6"/>
	<path class="st1" d="M378,69.8h-12.8c-0.8,0-2.4,0.8-2.4,1.6l-0.8,4l-0.8-1.6c-3.2-4-8.8-5.6-15.2-5.6c-14.4,0-27.2,11.2-29.6,26.4
		c-1.6,8,0.8,15.2,4.8,20s9.6,6.4,16.8,6.4c12,0,18.4-7.2,18.4-7.2l-0.8,4c0,1.6,0.8,2.4,2.4,2.4h12c1.6,0,3.2-1.6,4-3.2l7.2-44.8
		C380.4,71.4,378.8,69.8,378,69.8 M359.6,95.4c-1.6,7.2-7.2,12.8-15.2,12.8c-4,0-7.2-1.6-8.8-3.2c-1.6-2.4-2.4-5.6-2.4-9.6
		c0.8-7.2,7.2-12.8,14.4-12.8c4,0,6.4,1.6,8.8,3.2C358.8,88.2,359.6,92.2,359.6,95.4"/>
</g>
<path class="st0" d="M573.2,69.8h-12.8c-0.8,0-2.4,0.8-2.4,1.6l-0.8,4l-0.8-1.6c-3.2-4-8.8-5.6-15.2-5.6
	c-14.4,0-27.2,11.2-29.6,26.4c-1.6,8,0.8,15.2,4.8,20s9.6,6.4,16.8,6.4c12,0,18.4-7.2,18.4-7.2l-0.8,4c0,1.6,0.8,2.4,2.4,2.4h12
	c1.6,0,3.2-1.6,4-3.2l7.2-44.8C575.6,71.4,574.8,69.8,573.2,69.8 M554.8,95.4c-1.6,7.2-7.2,12.8-15.2,12.8c-4,0-7.2-1.6-8.8-3.2
	c-1.6-2.4-2.4-5.6-2.4-9.6c0.8-7.2,7.2-12.8,14.4-12.8c4,0,6.4,1.6,8.8,3.2C554.8,88.2,555.6,92.2,554.8,95.4"/>
<path class="st1" d="M447.6,69.8H434c-1.6,0-2.4,0.8-3.2,1.6l-17.6,27.2l-8-25.6c-0.8-1.6-1.6-2.4-4-2.4h-12.8
	c-1.6,0-2.4,1.6-2.4,3.2l14.4,42.4l-13.6,19.2c-0.8,1.6,0,4,1.6,4h12.8c1.6,0,2.4-0.8,3.2-1.6l44-63.2
	C450.8,72.2,449.2,69.8,447.6,69.8"/>
<path class="st0" d="M588.4,46.6l-11.2,72c0,1.6,0.8,2.4,2.4,2.4h11.2c1.6,0,3.2-1.6,4-3.2L606,47.4c0-1.6-0.8-2.4-2.4-2.4h-12.8
	C590,44.2,589.2,45,588.4,46.6"/>
<path class="st1" d="M194,20.2c-5.6-6.4-16-9.6-30.4-9.6h-40c-2.4,0-4.8,2.4-5.6,4.8l-16,104.8c0,2.4,1.6,4,3.2,4H130l6.4-39.2v1.6
	c0.8-2.4,3.2-4.8,5.6-4.8h12c23.2,0,40.8-9.6,46.4-36c0-0.8,0-1.6,0-2.4c-0.8,0-0.8,0,0,0C201.2,33,199.6,26.6,194,20.2"/>
<path class="st0" d="M199.6,43.4L199.6,43.4c0,0.8,0,1.6,0,2.4c-5.6,27.2-23.2,36-46.4,36h-12c-2.4,0-4.8,2.4-5.6,4.8l-8,48.8
	c0,1.6,0.8,3.2,3.2,3.2h20.8c2.4,0,4.8-1.6,4.8-4v-0.8l4-24.8v-1.6c0-2.4,2.4-4,4.8-4h3.2c20,0,36-8,40-32c1.6-9.6,0.8-18.4-4-24
	C203.6,45.8,202,44.2,199.6,43.4"/>
<path class="st2" d="M194,41c-0.8,0-1.6-0.8-2.4-0.8c-0.8,0-1.6,0-2.4-0.8c-3.2-0.8-6.4-0.8-10.4-0.8h-31.2c-0.8,0-1.6,0-2.4,0.8
	c-1.6,0.8-2.4,2.4-2.4,4L136.4,85v1.6c0.8-2.4,3.2-4.8,5.6-4.8h12c23.2,0,40.8-9.6,46.4-36c0-0.8,0-1.6,0.8-2.4
	c-1.6-0.8-2.4-1.6-4-1.6C194.8,41,194.8,41,194,41"/>
</svg>
