<?xml version="1.0" encoding="utf-8"?>
<!-- Generator: Adobe Illustrator 19.1.0, SVG Export Plug-In . SVG Version: 6.00 Build 0)  -->
<svg version="1.1" id="Layer_1" xmlns="http://www.w3.org/2000/svg" xmlns:xlink="http://www.w3.org/1999/xlink" x="0px" y="0px"
	 viewBox="237.6 -172.8 429 130.1" style="enable-background:new 237.6 -172.8 429 130.1;" xml:space="preserve">
<style type="text/css">
	.st0{fill:#3C58BF;}
	.st1{fill:#293688;}
	.st2{fill:#FFBC00;}
	.st3{fill:#F7981D;}
	.st4{fill:#ED7C00;}
	.st5{fill:#051244;}
</style>
<g>
	<polygon class="st0" points="394.8,-46.2 416.6,-168.7 450.6,-168.7 429.5,-46.2 	"/>
	<polygon class="st1" points="394.8,-46.2 422.7,-168.7 450.6,-168.7 429.5,-46.2 	"/>
	<path class="st0" d="M552.7-167.4c-6.8-2.7-17.7-5.4-31.3-5.4c-34,0-58.5,17-58.5,41.5c0,18.4,17,27.9,30.6,34s17.7,10.2,17.7,15.7
		c0,8.2-10.9,12.3-20.4,12.3c-13.6,0-21.1-2-32.7-6.8l-4.8-2l-4.8,27.9c8.2,3.4,23.1,6.8,38.8,6.8c36.1,0,59.9-17,59.9-42.9
		c0-14.3-8.8-25.2-29.3-34c-12.3-6.1-19.7-9.5-19.7-15.7c0-5.4,6.1-10.9,19.7-10.9c11.6,0,19.7,2,25.9,4.8l3.4,1.4L552.7-167.4
		L552.7-167.4z"/>
	<path class="st1" d="M552.7-167.4c-6.8-2.7-17.7-5.4-31.3-5.4c-34,0-52.4,17-52.4,41.5c0,18.4,10.9,27.9,24.5,34
		s17.7,10.2,17.7,15.7c0,8.2-10.9,12.3-20.4,12.3c-13.6,0-21.1-2-32.7-6.8l-4.8-2l-4.8,27.9c8.2,3.4,23.1,6.8,38.8,6.8
		c36.1,0,59.9-17,59.9-42.9c0-14.3-8.8-25.2-29.3-34c-12.3-6.1-19.7-9.5-19.7-15.7c0-5.4,6.1-10.9,19.7-10.9c11.6,0,19.7,2,25.9,4.8
		l3.4,1.4L552.7-167.4L552.7-167.4z"/>
	<path class="st0" d="M611.3-168.7c-8.2,0-14.3,0.7-17.7,8.8l-51,113.7h36.8l6.8-20.4h43.6l4.1,20.4h32.7L638-168.7H611.3z
		 M595.6-87c2-6.1,13.6-36.1,13.6-36.1s2.7-7.5,4.8-12.3l2,11.6c0,0,6.8,30.6,8.2,37.4h-28.6V-87z"/>
	<path class="st1" d="M619.4-168.7c-8.2,0-14.3,0.7-17.7,8.8L542.5-46.2h36.8l6.8-20.4h43.6l4.1,20.4h32.7l-28.6-122.5H619.4z
		 M595.6-87c2.7-6.8,13.6-36.1,13.6-36.1s2.7-7.5,4.8-12.3l2,11.6c0,0,6.8,30.6,8.2,37.4h-28.6V-87z"/>
	<path class="st0" d="M332.2-83l-3.4-17.7c-6.1-20.4-25.9-42.9-47.6-53.8l30.6,108.9h36.8l55.1-122.5h-36.8L332.2-83z"/>
	<path class="st1" d="M332.2-83l-3.4-17.7c-6.1-20.4-25.9-42.9-47.6-53.8l30.6,108.9h36.8l55.1-122.5h-29.9L332.2-83z"/>
	<path class="st2" d="M237.6-168.7l6.1,1.4c43.6,10.2,73.5,36.1,85.1,66.7l-12.3-57.9c-2-8.2-8.2-10.2-15.7-10.2L237.6-168.7
		L237.6-168.7z"/>
	<path class="st3" d="M237.6-168.7L237.6-168.7c43.6,10.2,79.6,36.8,91.2,67.4l-11.6-48.3c-2-8.2-8.8-12.9-16.3-12.9L237.6-168.7z"
		/>
	<path class="st4" d="M237.6-168.7L237.6-168.7c43.6,10.2,79.6,36.8,91.2,67.4l-8.2-26.5c-2-8.2-4.8-16.3-14.3-19.7L237.6-168.7z"/>
	<g>
		<path class="st5" d="M366.2-87l-23.1-23.1l-10.9,25.9l-2.7-17c-6.1-20.4-25.9-42.9-47.6-53.8l30.6,108.9h36.8L366.2-87z"/>
		<polygon class="st5" points="429.5,-46.2 400.3,-76.2 394.8,-46.2 		"/>
		<path class="st5" d="M507.8-88.4L507.8-88.4c2.7,2.7,4.1,4.8,3.4,7.5c0,8.2-10.9,12.3-20.4,12.3c-13.6,0-21.1-2-32.7-6.8l-4.8-2
			l-4.8,27.9c8.2,3.4,23.1,6.8,38.8,6.8c21.8,0,39.5-6.1,49.7-17L507.8-88.4z"/>
		<path class="st5" d="M547.3-46.2h32l6.8-20.4h43.6l4.1,20.4h32.7l-11.6-49.7L614-135.4l2,10.9c0,0,6.8,30.6,8.2,37.4h-28.6
			c2.7-6.8,13.6-36.1,13.6-36.1s2.7-7.5,4.8-12.3"/>
	</g>
</g>
</svg>
